<?xml version="1.0"?>
<svg xmlns="http://www.w3.org/2000/svg" id="Capa_1" enable-background="new 0 0 510 510" height="512px" viewBox="0 0 510 510" width="512px" class=""><g><g><path d="m399.422 348.044c-31.633 29.578-64.917 43.956-101.755 43.956-85.835 0-155.667-69.832-155.667-155.667 0-66.137 43.007-124.709 107.018-145.75l10.315-3.391v-29.741l-13.479-1.374c-5.675-.577-11-.4-16.149-.229-2.337.079-4.544.152-6.705.152-59.565 0-115.565 23.196-157.685 65.315s-65.315 98.12-65.315 157.685 23.196 115.565 65.315 157.685 98.12 65.315 157.685 65.315c43.898 0 86.644-12.665 123.615-36.627 36.331-23.545 64.707-56.354 82.062-94.879l4.254-9.444-22.913-22.913z" data-original="#000000" class="active-path" data-old_color="#000000" fill="#212529"/><path d="m224 260.807c0 14.439 5.623 28.015 15.833 38.225l56.648 56.648 56.648-56.648c10.21-10.21 15.833-23.785 15.833-38.225 0-24.706-20.101-44.807-44.807-44.807-10.165 0-19.813 3.362-27.675 9.561-7.862-6.199-17.51-9.561-27.675-9.561-24.704 0-44.805 20.101-44.805 44.807z" data-original="#000000" class="active-path" data-old_color="#000000" fill="#212529"/><path d="m448.907 8c-16.128 0-31.303 6.207-42.796 17.494-11.492-11.286-26.667-17.494-42.796-17.494-33.687 0-61.093 27.406-61.093 61.093 0 20.14 7.843 39.074 22.084 53.315l81.805 81.805 81.805-81.805c14.241-14.241 22.084-33.176 22.084-53.315 0-33.687-27.406-61.093-61.093-61.093z" data-original="#000000" class="active-path" data-old_color="#000000" fill="#212529"/></g></g> </svg>
